<svg width="242" height="65" viewBox="0 0 242 65" fill="none" xmlns="http://www.w3.org/2000/svg">
<g filter="url(#filter0_dd_135_12831)">
<rect x="1" y="1.24127" width="240" height="61" rx="8" fill="#346EF1"/>
<path d="M7.5 7.24127C7.5 6.68899 7.94772 6.24127 8.5 6.24127H57.5C58.0523 6.24127 58.5 6.68899 58.5 7.24127V56.2413C58.5 56.7936 58.0523 57.2413 57.5 57.2413H8.5C7.94772 57.2413 7.5 56.7936 7.5 56.2413V7.24127Z" fill="white"/>
<path fill-rule="evenodd" clip-rule="evenodd" d="M44.016 32.0021C44.016 31.1884 43.943 30.406 43.8074 29.6549H33V34.0936H39.1756C38.9096 35.528 38.1012 36.7433 36.8859 37.557V40.4362H40.5944C42.7642 38.4385 44.016 35.4967 44.016 32.0021Z" fill="#4285F4"/>
<path fill-rule="evenodd" clip-rule="evenodd" d="M33 43.2163C36.0982 43.2163 38.6957 42.1887 40.5943 40.4362L36.8858 37.557C35.8583 38.2455 34.5439 38.6523 33 38.6523C30.0112 38.6523 27.4815 36.6338 26.5792 33.9215H22.7455V36.8946C24.6336 40.6448 28.5143 43.2163 33 43.2163Z" fill="#34A853"/>
<path fill-rule="evenodd" clip-rule="evenodd" d="M26.5791 33.9215C26.3496 33.233 26.2192 32.4976 26.2192 31.7413C26.2192 30.985 26.3496 30.2495 26.5791 29.561V26.588H22.7454C21.9683 28.1371 21.5249 29.8896 21.5249 31.7413C21.5249 33.5929 21.9683 35.3455 22.7454 36.8946L26.5791 33.9215Z" fill="#FBBC05"/>
<path fill-rule="evenodd" clip-rule="evenodd" d="M33 24.8302C34.6847 24.8302 36.1973 25.4092 37.3865 26.5463L40.6778 23.255C38.6905 21.4034 36.093 20.2663 33 20.2663C28.5143 20.2663 24.6336 22.8377 22.7455 26.588L26.5792 29.561C27.4815 26.8488 30.0112 24.8302 33 24.8302Z" fill="#EA4335"/>
<path d="M76.3047 34.8926C76.3047 34.6641 76.2695 34.459 76.1992 34.2774C76.1348 34.0899 76.0117 33.92 75.8301 33.7676C75.6484 33.6094 75.3936 33.4542 75.0654 33.3018C74.7373 33.1495 74.3125 32.9913 73.791 32.8272C73.2109 32.6397 72.6602 32.4288 72.1387 32.1944C71.623 31.96 71.166 31.6876 70.7676 31.377C70.375 31.0606 70.0645 30.6944 69.8359 30.2784C69.6133 29.8624 69.502 29.379 69.502 28.8282C69.502 28.295 69.6191 27.8116 69.8535 27.378C70.0879 26.9385 70.416 26.5635 70.8379 26.253C71.2598 25.9366 71.7578 25.6934 72.332 25.5235C72.9121 25.3536 73.5479 25.2686 74.2393 25.2686C75.1826 25.2686 76.0059 25.4385 76.709 25.7784C77.4121 26.1182 77.957 26.584 78.3438 27.1758C78.7363 27.7676 78.9326 28.4444 78.9326 29.2061H76.3135C76.3135 28.8311 76.2344 28.503 76.0762 28.2217C75.9238 27.9346 75.6895 27.709 75.373 27.545C75.0625 27.3809 74.6699 27.2989 74.1953 27.2989C73.7383 27.2989 73.3574 27.3692 73.0527 27.5098C72.748 27.6446 72.5195 27.8292 72.3672 28.0635C72.2148 28.2921 72.1387 28.5499 72.1387 28.837C72.1387 29.0538 72.1914 29.2501 72.2969 29.4258C72.4082 29.6016 72.5723 29.7657 72.7891 29.918C73.0059 30.0704 73.2725 30.2139 73.5889 30.3487C73.9053 30.4835 74.2715 30.6153 74.6875 30.7442C75.3848 30.9551 75.9971 31.1924 76.5244 31.4561C77.0576 31.7198 77.5029 32.0157 77.8604 32.3438C78.2178 32.6719 78.4873 33.044 78.6689 33.46C78.8506 33.876 78.9414 34.3477 78.9414 34.8751C78.9414 35.4317 78.833 35.9297 78.6162 36.3692C78.3994 36.8087 78.0859 37.1807 77.6758 37.4854C77.2656 37.7901 76.7764 38.0215 76.208 38.1797C75.6396 38.338 75.0039 38.4171 74.3008 38.4171C73.668 38.4171 73.0439 38.335 72.4287 38.171C71.8135 38.001 71.2539 37.7462 70.75 37.4063C70.252 37.0665 69.8535 36.6329 69.5547 36.1055C69.2559 35.5782 69.1064 34.9542 69.1064 34.2335H71.752C71.752 34.6319 71.8135 34.9688 71.9365 35.2442C72.0596 35.5196 72.2324 35.7422 72.4551 35.9122C72.6836 36.0821 72.9531 36.2051 73.2637 36.2813C73.5801 36.3575 73.9258 36.3956 74.3008 36.3956C74.7578 36.3956 75.1328 36.3311 75.4258 36.2022C75.7246 36.0733 75.9443 35.8946 76.085 35.6661C76.2314 35.4376 76.3047 35.1797 76.3047 34.8926ZM83.248 28.7315V38.2413H80.708V28.7315H83.248ZM80.5498 26.253C80.5498 25.8839 80.6787 25.5792 80.9365 25.3389C81.1943 25.0987 81.54 24.9786 81.9736 24.9786C82.4014 24.9786 82.7441 25.0987 83.002 25.3389C83.2656 25.5792 83.3975 25.8839 83.3975 26.253C83.3975 26.6221 83.2656 26.9268 83.002 27.1671C82.7441 27.4073 82.4014 27.5274 81.9736 27.5274C81.54 27.5274 81.1943 27.4073 80.9365 27.1671C80.6787 26.9268 80.5498 26.6221 80.5498 26.253ZM91.3604 28.7315H93.6543V37.9249C93.6543 38.7921 93.4609 39.5274 93.0742 40.1309C92.6934 40.7403 92.1602 41.2003 91.4746 41.5108C90.7891 41.8272 89.9922 41.9854 89.084 41.9854C88.6855 41.9854 88.2637 41.9327 87.8184 41.8272C87.3789 41.7217 86.957 41.5577 86.5527 41.335C86.1543 41.1124 85.8203 40.8311 85.5508 40.4913L86.667 38.9971C86.96 39.337 87.2998 39.6006 87.6865 39.7881C88.0732 39.9815 88.501 40.0782 88.9697 40.0782C89.4268 40.0782 89.8135 39.9932 90.1299 39.8233C90.4463 39.6592 90.6895 39.4161 90.8594 39.0938C91.0293 38.7774 91.1143 38.3936 91.1143 37.9424V30.9288L91.3604 28.7315ZM84.9619 33.6006V33.4161C84.9619 32.6895 85.0498 32.0303 85.2256 31.4385C85.4072 30.8409 85.6621 30.3282 85.9902 29.9005C86.3242 29.4727 86.7285 29.1417 87.2031 28.9073C87.6777 28.6729 88.2139 28.5557 88.8115 28.5557C89.4443 28.5557 89.9746 28.6729 90.4023 28.9073C90.8301 29.1417 91.1816 29.4756 91.457 29.9092C91.7324 30.337 91.9463 30.8438 92.0986 31.4297C92.2568 32.0098 92.3799 32.6456 92.4678 33.337V33.7413C92.3799 34.4034 92.248 35.0186 92.0723 35.587C91.8965 36.1553 91.665 36.6534 91.3779 37.0811C91.0908 37.503 90.7334 37.8311 90.3057 38.0655C89.8838 38.2999 89.3799 38.4171 88.7939 38.4171C88.208 38.4171 87.6777 38.2969 87.2031 38.0567C86.7344 37.8165 86.333 37.4796 85.999 37.046C85.665 36.6124 85.4072 36.1026 85.2256 35.5167C85.0498 34.9307 84.9619 34.2921 84.9619 33.6006ZM87.4932 33.4161V33.6006C87.4932 33.9932 87.5312 34.3594 87.6074 34.6993C87.6836 35.0391 87.8008 35.3409 87.959 35.6046C88.123 35.8624 88.3252 36.0645 88.5654 36.211C88.8115 36.3516 89.1016 36.4219 89.4355 36.4219C89.8984 36.4219 90.2764 36.3253 90.5693 36.1319C90.8623 35.9327 91.082 35.6602 91.2285 35.3145C91.375 34.9688 91.46 34.5704 91.4834 34.1192V32.9678C91.4717 32.5987 91.4219 32.2676 91.334 31.9747C91.2461 31.6758 91.123 31.421 90.9648 31.21C90.8066 30.9991 90.6016 30.835 90.3496 30.7178C90.0977 30.6006 89.7988 30.5421 89.4531 30.5421C89.1191 30.5421 88.8291 30.6182 88.583 30.7706C88.3428 30.9171 88.1406 31.1192 87.9766 31.377C87.8184 31.6348 87.6982 31.9395 87.6162 32.2911C87.5342 32.6368 87.4932 33.0118 87.4932 33.4161ZM98.1016 30.7618V38.2413H95.5703V28.7315H97.9434L98.1016 30.7618ZM97.7324 33.1524H97.0469C97.0469 32.4493 97.1377 31.8165 97.3193 31.254C97.501 30.6856 97.7559 30.2022 98.084 29.8038C98.4121 29.3995 98.8018 29.0919 99.2529 28.8809C99.71 28.6641 100.22 28.5557 100.782 28.5557C101.228 28.5557 101.635 28.6202 102.004 28.7491C102.373 28.878 102.689 29.0831 102.953 29.3643C103.223 29.6456 103.428 30.0176 103.568 30.4805C103.715 30.9434 103.788 31.5089 103.788 32.1768V38.2413H101.239V32.168C101.239 31.7462 101.181 31.418 101.063 31.1837C100.946 30.9493 100.773 30.7852 100.545 30.6915C100.322 30.5919 100.047 30.5421 99.7188 30.5421C99.3789 30.5421 99.083 30.6094 98.8311 30.7442C98.585 30.879 98.3799 31.0665 98.2158 31.3067C98.0576 31.5411 97.9375 31.8165 97.8555 32.1329C97.7734 32.4493 97.7324 32.7891 97.7324 33.1524ZM112.867 28.7315V38.2413H110.327V28.7315H112.867ZM110.169 26.253C110.169 25.8839 110.298 25.5792 110.556 25.3389C110.813 25.0987 111.159 24.9786 111.593 24.9786C112.021 24.9786 112.363 25.0987 112.621 25.3389C112.885 25.5792 113.017 25.8839 113.017 26.253C113.017 26.6221 112.885 26.9268 112.621 27.1671C112.363 27.4073 112.021 27.5274 111.593 27.5274C111.159 27.5274 110.813 27.4073 110.556 27.1671C110.298 26.9268 110.169 26.6221 110.169 26.253ZM117.438 30.7618V38.2413H114.906V28.7315H117.279L117.438 30.7618ZM117.068 33.1524H116.383C116.383 32.4493 116.474 31.8165 116.655 31.254C116.837 30.6856 117.092 30.2022 117.42 29.8038C117.748 29.3995 118.138 29.0919 118.589 28.8809C119.046 28.6641 119.556 28.5557 120.118 28.5557C120.563 28.5557 120.971 28.6202 121.34 28.7491C121.709 28.878 122.025 29.0831 122.289 29.3643C122.559 29.6456 122.764 30.0176 122.904 30.4805C123.051 30.9434 123.124 31.5089 123.124 32.1768V38.2413H120.575V32.168C120.575 31.7462 120.517 31.418 120.399 31.1837C120.282 30.9493 120.109 30.7852 119.881 30.6915C119.658 30.5919 119.383 30.5421 119.055 30.5421C118.715 30.5421 118.419 30.6094 118.167 30.7442C117.921 30.879 117.716 31.0665 117.552 31.3067C117.394 31.5411 117.273 31.8165 117.191 32.1329C117.109 32.4493 117.068 32.7891 117.068 33.1524ZM132.247 35.7803L134.225 28.7315H135.833L135.314 31.5001L133.337 38.2413H131.992L132.247 35.7803ZM131.245 28.7315L132.66 35.7715L132.792 38.2413H131.21L128.802 28.7315H131.245ZM137.644 35.6573L139.023 28.7315H141.476L139.067 38.2413H137.494L137.644 35.6573ZM136.053 28.7315L138.021 35.7276L138.294 38.2413H136.94L134.963 31.5089L134.462 28.7315H136.053ZM145.422 28.7315V38.2413H142.882V28.7315H145.422ZM142.724 26.253C142.724 25.8839 142.853 25.5792 143.11 25.3389C143.368 25.0987 143.714 24.9786 144.147 24.9786C144.575 24.9786 144.918 25.0987 145.176 25.3389C145.439 25.5792 145.571 25.8839 145.571 26.253C145.571 26.6221 145.439 26.9268 145.176 27.1671C144.918 27.4073 144.575 27.5274 144.147 27.5274C143.714 27.5274 143.368 27.4073 143.11 27.1671C142.853 26.9268 142.724 26.6221 142.724 26.253ZM152.172 28.7315V30.5245H146.635V28.7315H152.172ZM148.006 26.3848H150.537V35.376C150.537 35.6514 150.572 35.8624 150.643 36.0089C150.719 36.1553 150.83 36.2579 150.977 36.3165C151.123 36.3692 151.308 36.3956 151.53 36.3956C151.688 36.3956 151.829 36.3897 151.952 36.378C152.081 36.3604 152.189 36.3428 152.277 36.3253L152.286 38.1885C152.069 38.2589 151.835 38.3145 151.583 38.3555C151.331 38.3965 151.053 38.4171 150.748 38.4171C150.191 38.4171 149.705 38.3262 149.289 38.1446C148.879 37.9571 148.562 37.6583 148.34 37.2481C148.117 36.838 148.006 36.2989 148.006 35.6309V26.3848ZM156.083 24.7413V38.2413H153.552V24.7413H156.083ZM155.723 33.1524H155.028C155.034 32.4903 155.122 31.8809 155.292 31.3243C155.462 30.7618 155.705 30.2755 156.021 29.8653C156.338 29.4493 156.716 29.127 157.155 28.8985C157.601 28.67 158.093 28.5557 158.632 28.5557C159.101 28.5557 159.525 28.6231 159.906 28.7579C160.293 28.8868 160.624 29.0977 160.899 29.3907C161.181 29.6778 161.397 30.0557 161.55 30.5245C161.702 30.9932 161.778 31.5616 161.778 32.2296V38.2413H159.229V32.212C159.229 31.7901 159.168 31.459 159.045 31.2188C158.928 30.9727 158.755 30.7999 158.526 30.7003C158.304 30.5948 158.028 30.5421 157.7 30.5421C157.337 30.5421 157.026 30.6094 156.769 30.7442C156.517 30.879 156.314 31.0665 156.162 31.3067C156.01 31.5411 155.898 31.8165 155.828 32.1329C155.758 32.4493 155.723 32.7891 155.723 33.1524ZM178.486 31.5528V36.6241C178.287 36.8643 177.979 37.1251 177.563 37.4063C177.147 37.6817 176.611 37.919 175.955 38.1182C175.299 38.3174 174.505 38.4171 173.573 38.4171C172.747 38.4171 171.994 38.2823 171.314 38.0128C170.635 37.7374 170.049 37.336 169.557 36.8087C169.07 36.2813 168.695 35.6368 168.432 34.8751C168.168 34.1075 168.036 33.2315 168.036 32.2471V31.4473C168.036 30.463 168.162 29.587 168.414 28.8194C168.672 28.0518 169.038 27.4044 169.513 26.877C169.987 26.3497 170.553 25.9483 171.209 25.6729C171.865 25.3975 172.595 25.2598 173.397 25.2598C174.511 25.2598 175.425 25.4415 176.14 25.8047C176.854 26.1622 177.399 26.6602 177.774 27.2989C178.155 27.9317 178.39 28.6583 178.478 29.4786H175.92C175.855 29.045 175.732 28.6671 175.551 28.3448C175.369 28.0225 175.108 27.7706 174.769 27.5889C174.435 27.4073 174.001 27.3165 173.468 27.3165C173.028 27.3165 172.636 27.4073 172.29 27.5889C171.95 27.7647 171.663 28.0255 171.429 28.3712C171.194 28.7169 171.016 29.1446 170.893 29.6544C170.77 30.1641 170.708 30.7559 170.708 31.4297V32.2471C170.708 32.9151 170.772 33.5069 170.901 34.0225C171.03 34.5323 171.221 34.963 171.473 35.3145C171.73 35.6602 172.047 35.921 172.422 36.0967C172.797 36.2725 173.233 36.3604 173.731 36.3604C174.147 36.3604 174.493 36.3253 174.769 36.2549C175.05 36.1846 175.275 36.0997 175.445 36.0001C175.621 35.8946 175.756 35.795 175.85 35.7012V33.4337H173.441V31.5528H178.486ZM180.051 33.5831V33.3985C180.051 32.7012 180.15 32.0596 180.35 31.4737C180.549 30.8819 180.839 30.3692 181.22 29.9356C181.601 29.502 182.069 29.1651 182.626 28.9249C183.183 28.6788 183.821 28.5557 184.542 28.5557C185.263 28.5557 185.904 28.6788 186.467 28.9249C187.029 29.1651 187.501 29.502 187.882 29.9356C188.269 30.3692 188.562 30.8819 188.761 31.4737C188.96 32.0596 189.06 32.7012 189.06 33.3985V33.5831C189.06 34.2745 188.96 34.9161 188.761 35.5079C188.562 36.0938 188.269 36.6065 187.882 37.046C187.501 37.4796 187.032 37.8165 186.476 38.0567C185.919 38.2969 185.28 38.4171 184.56 38.4171C183.839 38.4171 183.197 38.2969 182.635 38.0567C182.078 37.8165 181.606 37.4796 181.22 37.046C180.839 36.6065 180.549 36.0938 180.35 35.5079C180.15 34.9161 180.051 34.2745 180.051 33.5831ZM182.582 33.3985V33.5831C182.582 33.9815 182.617 34.3536 182.688 34.6993C182.758 35.045 182.869 35.3497 183.021 35.6133C183.18 35.8712 183.385 36.0733 183.637 36.2198C183.889 36.3663 184.196 36.4395 184.56 36.4395C184.911 36.4395 185.213 36.3663 185.465 36.2198C185.717 36.0733 185.919 35.8712 186.071 35.6133C186.224 35.3497 186.335 35.045 186.405 34.6993C186.481 34.3536 186.52 33.9815 186.52 33.5831V33.3985C186.52 33.0118 186.481 32.6485 186.405 32.3087C186.335 31.963 186.221 31.6583 186.062 31.3946C185.91 31.1251 185.708 30.9141 185.456 30.7618C185.204 30.6094 184.899 30.5333 184.542 30.5333C184.185 30.5333 183.88 30.6094 183.628 30.7618C183.382 30.9141 183.18 31.1251 183.021 31.3946C182.869 31.6583 182.758 31.963 182.688 32.3087C182.617 32.6485 182.582 33.0118 182.582 33.3985ZM190.211 33.5831V33.3985C190.211 32.7012 190.311 32.0596 190.51 31.4737C190.709 30.8819 190.999 30.3692 191.38 29.9356C191.761 29.502 192.229 29.1651 192.786 28.9249C193.343 28.6788 193.981 28.5557 194.702 28.5557C195.423 28.5557 196.064 28.6788 196.627 28.9249C197.189 29.1651 197.661 29.502 198.042 29.9356C198.429 30.3692 198.722 30.8819 198.921 31.4737C199.12 32.0596 199.22 32.7012 199.22 33.3985V33.5831C199.22 34.2745 199.12 34.9161 198.921 35.5079C198.722 36.0938 198.429 36.6065 198.042 37.046C197.661 37.4796 197.192 37.8165 196.636 38.0567C196.079 38.2969 195.44 38.4171 194.72 38.4171C193.999 38.4171 193.357 38.2969 192.795 38.0567C192.238 37.8165 191.767 37.4796 191.38 37.046C190.999 36.6065 190.709 36.0938 190.51 35.5079C190.311 34.9161 190.211 34.2745 190.211 33.5831ZM192.742 33.3985V33.5831C192.742 33.9815 192.777 34.3536 192.848 34.6993C192.918 35.045 193.029 35.3497 193.182 35.6133C193.34 35.8712 193.545 36.0733 193.797 36.2198C194.049 36.3663 194.356 36.4395 194.72 36.4395C195.071 36.4395 195.373 36.3663 195.625 36.2198C195.877 36.0733 196.079 35.8712 196.231 35.6133C196.384 35.3497 196.495 35.045 196.565 34.6993C196.642 34.3536 196.68 33.9815 196.68 33.5831V33.3985C196.68 33.0118 196.642 32.6485 196.565 32.3087C196.495 31.963 196.381 31.6583 196.223 31.3946C196.07 31.1251 195.868 30.9141 195.616 30.7618C195.364 30.6094 195.06 30.5333 194.702 30.5333C194.345 30.5333 194.04 30.6094 193.788 30.7618C193.542 30.9141 193.34 31.1251 193.182 31.3946C193.029 31.6583 192.918 31.963 192.848 32.3087C192.777 32.6485 192.742 33.0118 192.742 33.3985ZM206.796 28.7315H209.09V37.9249C209.09 38.7921 208.896 39.5274 208.51 40.1309C208.129 40.7403 207.596 41.2003 206.91 41.5108C206.225 41.8272 205.428 41.9854 204.52 41.9854C204.121 41.9854 203.699 41.9327 203.254 41.8272C202.814 41.7217 202.393 41.5577 201.988 41.335C201.59 41.1124 201.256 40.8311 200.986 40.4913L202.103 38.9971C202.396 39.337 202.735 39.6006 203.122 39.7881C203.509 39.9815 203.937 40.0782 204.405 40.0782C204.862 40.0782 205.249 39.9932 205.565 39.8233C205.882 39.6592 206.125 39.4161 206.295 39.0938C206.465 38.7774 206.55 38.3936 206.55 37.9424V30.9288L206.796 28.7315ZM200.397 33.6006V33.4161C200.397 32.6895 200.485 32.0303 200.661 31.4385C200.843 30.8409 201.098 30.3282 201.426 29.9005C201.76 29.4727 202.164 29.1417 202.639 28.9073C203.113 28.6729 203.649 28.5557 204.247 28.5557C204.88 28.5557 205.41 28.6729 205.838 28.9073C206.266 29.1417 206.617 29.4756 206.893 29.9092C207.168 30.337 207.382 30.8438 207.534 31.4297C207.692 32.0098 207.815 32.6456 207.903 33.337V33.7413C207.815 34.4034 207.684 35.0186 207.508 35.587C207.332 36.1553 207.101 36.6534 206.813 37.0811C206.526 37.503 206.169 37.8311 205.741 38.0655C205.319 38.2999 204.815 38.4171 204.229 38.4171C203.644 38.4171 203.113 38.2969 202.639 38.0567C202.17 37.8165 201.769 37.4796 201.435 37.046C201.101 36.6124 200.843 36.1026 200.661 35.5167C200.485 34.9307 200.397 34.2921 200.397 33.6006ZM202.929 33.4161V33.6006C202.929 33.9932 202.967 34.3594 203.043 34.6993C203.119 35.0391 203.236 35.3409 203.395 35.6046C203.559 35.8624 203.761 36.0645 204.001 36.211C204.247 36.3516 204.537 36.4219 204.871 36.4219C205.334 36.4219 205.712 36.3253 206.005 36.1319C206.298 35.9327 206.518 35.6602 206.664 35.3145C206.811 34.9688 206.896 34.5704 206.919 34.1192V32.9678C206.907 32.5987 206.857 32.2676 206.77 31.9747C206.682 31.6758 206.559 31.421 206.4 31.21C206.242 30.9991 206.037 30.835 205.785 30.7178C205.533 30.6006 205.234 30.5421 204.889 30.5421C204.555 30.5421 204.265 30.6182 204.019 30.7706C203.778 30.9171 203.576 31.1192 203.412 31.377C203.254 31.6348 203.134 31.9395 203.052 32.2911C202.97 32.6368 202.929 33.0118 202.929 33.4161ZM213.73 24.7413V38.2413H211.19V24.7413H213.73ZM220.199 38.4171C219.461 38.4171 218.799 38.2999 218.213 38.0655C217.627 37.8253 217.129 37.4942 216.719 37.0723C216.314 36.6505 216.004 36.1612 215.787 35.6046C215.57 35.0421 215.462 34.4444 215.462 33.8116V33.46C215.462 32.7393 215.564 32.0801 215.77 31.4825C215.975 30.8848 216.268 30.3663 216.648 29.9268C217.035 29.4874 217.504 29.1505 218.055 28.9161C218.605 28.6758 219.227 28.5557 219.918 28.5557C220.592 28.5557 221.189 28.6671 221.711 28.8897C222.232 29.1124 222.669 29.4288 223.021 29.8389C223.378 30.2491 223.647 30.7413 223.829 31.3155C224.011 31.8839 224.102 32.5167 224.102 33.2139V34.2686H216.543V32.5811H221.614V32.3878C221.614 32.0362 221.55 31.7227 221.421 31.4473C221.298 31.1661 221.11 30.9434 220.858 30.7794C220.606 30.6153 220.284 30.5333 219.892 30.5333C219.558 30.5333 219.271 30.6065 219.03 30.753C218.79 30.8995 218.594 31.1046 218.441 31.3682C218.295 31.6319 218.184 31.9424 218.107 32.2999C218.037 32.6514 218.002 33.0381 218.002 33.46V33.8116C218.002 34.1924 218.055 34.544 218.16 34.8663C218.271 35.1885 218.427 35.4669 218.626 35.7012C218.831 35.9356 219.077 36.1172 219.364 36.2462C219.657 36.3751 219.988 36.4395 220.357 36.4395C220.814 36.4395 221.239 36.3516 221.632 36.1758C222.03 35.9942 222.373 35.7217 222.66 35.3585L223.891 36.6944C223.691 36.9815 223.419 37.2569 223.073 37.5206C222.733 37.7842 222.323 38.001 221.843 38.171C221.362 38.335 220.814 38.4171 220.199 38.4171Z" fill="white"/>
</g>
<defs>
<filter id="filter0_dd_135_12831" x="0" y="0.241272" width="242" height="64" filterUnits="userSpaceOnUse" color-interpolation-filters="sRGB">
<feFlood flood-opacity="0" result="BackgroundImageFix"/>
<feColorMatrix in="SourceAlpha" type="matrix" values="0 0 0 0 0 0 0 0 0 0 0 0 0 0 0 0 0 0 127 0" result="hardAlpha"/>
<feOffset dy="1"/>
<feGaussianBlur stdDeviation="0.5"/>
<feColorMatrix type="matrix" values="0 0 0 0 0 0 0 0 0 0 0 0 0 0 0 0 0 0 0.168 0"/>
<feBlend mode="normal" in2="BackgroundImageFix" result="effect1_dropShadow_135_12831"/>
<feColorMatrix in="SourceAlpha" type="matrix" values="0 0 0 0 0 0 0 0 0 0 0 0 0 0 0 0 0 0 127 0" result="hardAlpha"/>
<feOffset/>
<feGaussianBlur stdDeviation="0.5"/>
<feColorMatrix type="matrix" values="0 0 0 0 0 0 0 0 0 0 0 0 0 0 0 0 0 0 0.084 0"/>
<feBlend mode="normal" in2="effect1_dropShadow_135_12831" result="effect2_dropShadow_135_12831"/>
<feBlend mode="normal" in="SourceGraphic" in2="effect2_dropShadow_135_12831" result="shape"/>
</filter>
</defs>
</svg>
