<svg width="175" height="40" viewBox="0 0 175 40" fill="none" xmlns="http://www.w3.org/2000/svg">
<path d="M39.2784 0H36.6831C36.3867 0 36.1462 0.240533 36.1462 0.538586V4.35226H34.4485V3.15308C34.4485 1.91032 33.4411 0.901129 32.2018 0.901129H29.8313V0.538586C29.8313 0.240533 29.5908 0 29.2945 0H26.6974C26.4011 0 26.1606 0.240533 26.1606 0.538586V0.901129H7.4635C6.3079 0.901129 5.36668 1.84409 5.36668 3.00144V4.35226H3.669V0.538586C3.669 0.240533 3.42847 0 3.13216 0H0.536842C0.240533 0 0 0.240533 0 0.538586V39.4632C0 39.7595 0.240533 40 0.536842 40H3.13216C3.42847 40 3.669 39.7595 3.669 39.4632V34.8477H26.1606V39.4632C26.1606 39.7595 26.4011 40 26.6974 40H29.2945C29.5891 40 29.8296 39.7595 29.8296 39.4632V34.8477H36.1462V39.4632C36.1462 39.7595 36.3867 40 36.6831 40H39.2784C39.5747 40 39.8152 39.7595 39.8152 39.4632V0.538586C39.8152 0.240533 39.5764 0 39.2784 0ZM32.2018 1.97656C32.8485 1.97656 33.3749 2.50468 33.3749 3.15308V4.35226H29.8313V1.97656H32.2018ZM3.669 31.17V8.02998H26.1606V27.7171H7.4635C6.3079 27.7171 5.36668 28.6601 5.36668 29.8192V31.17H3.669ZM6.44036 29.8192C6.44036 29.2544 6.89877 28.7943 7.4635 28.7943H26.1606V31.17H6.44036V29.8192ZM6.44036 3.00144C6.44036 2.43671 6.89877 1.97656 7.4635 1.97656H26.1606V4.35226H6.44036V3.00144ZM3.13216 33.7723C2.83585 33.7723 2.59532 34.0128 2.59532 34.3091V38.9246H1.07368V1.07543H2.59532V4.89084C2.59532 5.18715 2.83585 5.42943 3.13216 5.42943H26.1606V6.95455H3.13216C2.83585 6.95455 2.59532 7.19508 2.59532 7.49314V31.7086C2.59532 32.0049 2.83585 32.2454 3.13216 32.2454H26.1606V33.7723H3.13216ZM38.7433 38.9246H37.2199V34.3091C37.2199 34.0128 36.9794 33.7723 36.6831 33.7723H29.2945C28.9982 33.7723 28.7577 34.0128 28.7577 34.3091V38.9246H27.2343V1.07543H28.7577V4.89084C28.7577 5.18715 28.9982 5.42943 29.2945 5.42943H36.6831C36.9794 5.42943 37.2199 5.18715 37.2199 4.89084V1.07543H38.7433V38.9246Z" fill="#050A30"/>
<path d="M36.6817 27.0674H29.2932C28.9969 27.0674 28.7563 27.3097 28.7563 27.606V31.709C28.7563 32.0053 28.9969 32.2459 29.2932 32.2459H36.6817C36.9781 32.2459 37.2186 32.0053 37.2186 31.709V27.606C37.2186 27.3097 36.9781 27.0674 36.6817 27.0674ZM29.83 31.1705V28.7948H32.2005C32.8472 28.7948 33.3735 29.3211 33.3735 29.9695V31.1705H29.83ZM36.1449 31.1705H34.4472V29.9695C34.4472 29.2183 34.076 28.5525 33.5095 28.1429H36.1449V31.1705Z" fill="#050A30"/>
<path d="M36.6817 13.6581H29.2932C28.9969 13.6581 28.7563 13.9004 28.7563 14.1967V18.2997C28.7563 18.596 28.9969 18.8365 29.2932 18.8365H36.6817C36.9781 18.8365 37.2186 18.596 37.2186 18.2997V14.1967C37.2186 13.9004 36.9781 13.6581 36.6817 13.6581ZM36.1449 17.7611H29.83V14.7353H36.1449V17.7611Z" fill="#050A30"/>
<path d="M36.6817 6.95471H29.2932C28.9969 6.95471 28.7563 7.19525 28.7563 7.4933V11.5946C28.7563 11.8926 28.9969 12.1331 29.2932 12.1331H36.6817C36.9781 12.1331 37.2186 11.8926 37.2186 11.5946V7.4933C37.2186 7.19525 36.9781 6.95471 36.6817 6.95471ZM36.1449 11.0577H29.83V8.03014H36.1449V11.0577Z" fill="#050A30"/>
<path d="M36.6817 20.3629H29.2932C28.9969 20.3629 28.7563 20.6034 28.7563 20.9015V25.0028C28.7563 25.3008 28.9969 25.5414 29.2932 25.5414H36.6817C36.9781 25.5414 37.2186 25.3008 37.2186 25.0028V20.9015C37.2186 20.6034 36.9781 20.3629 36.6817 20.3629ZM36.1449 24.4659H29.83V21.4383H36.1449V24.4659Z" fill="#050A30"/>
<path d="M59.5552 19.8C60.3685 19.9733 61.0219 20.38 61.5152 21.02C62.0085 21.6467 62.2552 22.3667 62.2552 23.18C62.2552 24.3533 61.8419 25.2867 61.0152 25.98C60.2019 26.66 59.0619 27 57.5952 27H51.0552V12.96H57.3752C58.8019 12.96 59.9152 13.2867 60.7152 13.94C61.5285 14.5933 61.9352 15.48 61.9352 16.6C61.9352 17.4267 61.7152 18.1133 61.2752 18.66C60.8485 19.2067 60.2752 19.5867 59.5552 19.8ZM54.4752 18.64H56.7152C57.2752 18.64 57.7019 18.52 57.9952 18.28C58.3019 18.0267 58.4552 17.66 58.4552 17.18C58.4552 16.7 58.3019 16.3333 57.9952 16.08C57.7019 15.8267 57.2752 15.7 56.7152 15.7H54.4752V18.64ZM56.9952 24.24C57.5685 24.24 58.0085 24.1133 58.3152 23.86C58.6352 23.5933 58.7952 23.2133 58.7952 22.72C58.7952 22.2267 58.6285 21.84 58.2952 21.56C57.9752 21.28 57.5285 21.14 56.9552 21.14H54.4752V24.24H56.9952ZM67.5988 12.96V21.36C67.5988 22.2 67.8054 22.8467 68.2188 23.3C68.6321 23.7533 69.2388 23.98 70.0388 23.98C70.8388 23.98 71.4521 23.7533 71.8788 23.3C72.3054 22.8467 72.5188 22.2 72.5188 21.36V12.96H75.9388V21.34C75.9388 22.5933 75.6721 23.6533 75.1388 24.52C74.6054 25.3867 73.8854 26.04 72.9788 26.48C72.0854 26.92 71.0854 27.14 69.9788 27.14C68.8721 27.14 67.8788 26.9267 66.9988 26.5C66.1321 26.06 65.4454 25.4067 64.9388 24.54C64.4321 23.66 64.1788 22.5933 64.1788 21.34V12.96H67.5988ZM90.9003 27H87.4803L81.7603 18.34V27H78.3403V12.96H81.7603L87.4803 21.66V12.96H90.9003V27ZM101.519 27L96.7994 20.8V27H93.3794V12.96H96.7994V19.12L101.479 12.96H105.499L100.059 19.84L105.699 27H101.519ZM123.225 12.96V27H119.805V18.58L116.665 27H113.905L110.745 18.56V27H107.325V12.96H111.365L115.305 22.68L119.205 12.96H123.225ZM134.424 24.52H129.184L128.344 27H124.764L129.844 12.96H133.804L138.884 27H135.264L134.424 24.52ZM133.544 21.88L131.804 16.74L130.084 21.88H133.544ZM150.53 12.96V15.7H146.81V27H143.39V15.7H139.67V12.96H150.53ZM155.667 15.7V18.54H160.247V21.18H155.667V24.26H160.847V27H152.247V12.96H160.847V15.7H155.667ZM168.147 27.14C167.12 27.14 166.2 26.9733 165.387 26.64C164.574 26.3067 163.92 25.8133 163.427 25.16C162.947 24.5067 162.694 23.72 162.667 22.8H166.307C166.36 23.32 166.54 23.72 166.847 24C167.154 24.2667 167.554 24.4 168.047 24.4C168.554 24.4 168.954 24.2867 169.247 24.06C169.54 23.82 169.687 23.4933 169.687 23.08C169.687 22.7333 169.567 22.4467 169.327 22.22C169.1 21.9933 168.814 21.8067 168.467 21.66C168.134 21.5133 167.654 21.3467 167.027 21.16C166.12 20.88 165.38 20.6 164.807 20.32C164.234 20.04 163.74 19.6267 163.327 19.08C162.914 18.5333 162.707 17.82 162.707 16.94C162.707 15.6333 163.18 14.6133 164.127 13.88C165.074 13.1333 166.307 12.76 167.827 12.76C169.374 12.76 170.62 13.1333 171.567 13.88C172.514 14.6133 173.02 15.64 173.087 16.96H169.387C169.36 16.5067 169.194 16.1533 168.887 15.9C168.58 15.6333 168.187 15.5 167.707 15.5C167.294 15.5 166.96 15.6133 166.707 15.84C166.454 16.0533 166.327 16.3667 166.327 16.78C166.327 17.2333 166.54 17.5867 166.967 17.84C167.394 18.0933 168.06 18.3667 168.967 18.66C169.874 18.9667 170.607 19.26 171.167 19.54C171.74 19.82 172.234 20.2267 172.647 20.76C173.06 21.2933 173.267 21.98 173.267 22.82C173.267 23.62 173.06 24.3467 172.647 25C172.247 25.6533 171.66 26.1733 170.887 26.56C170.114 26.9467 169.2 27.14 168.147 27.14Z" fill="#2D2D2D"/>
</svg>
